<?xml version="1.0" encoding="UTF-8" standalone="no"?>
<svg
   xmlns:dc="http://purl.org/dc/elements/1.1/"
   xmlns:cc="http://creativecommons.org/ns#"
   xmlns:rdf="http://www.w3.org/1999/02/22-rdf-syntax-ns#"
   xmlns:svg="http://www.w3.org/2000/svg"
   xmlns="http://www.w3.org/2000/svg"
   xmlns:sodipodi="http://sodipodi.sourceforge.net/DTD/sodipodi-0.dtd"
   xmlns:inkscape="http://www.inkscape.org/namespaces/inkscape"
   style="shape-rendering:crispEdges"
   viewBox="0 0 750 200"
   version="1.1"
   id="svg7723"
   height="200"
   width="750"
   inkscape:version="0.91pre2 r"
   sodipodi:docname="sprite.svg"
   inkscape:export-filename="/home/mray/Projects/TOL/terminal-overload.org/images/sprite.png"
   inkscape:export-xdpi="90"
   inkscape:export-ydpi="90">
  <sodipodi:namedview
     pagecolor="#ffffff"
     bordercolor="#666666"
     borderopacity="1"
     objecttolerance="10"
     gridtolerance="10"
     guidetolerance="10"
     inkscape:pageopacity="0"
     inkscape:pageshadow="2"
     inkscape:window-width="2041"
     inkscape:window-height="1000"
     id="namedview17"
     showgrid="true"
     inkscape:zoom="6.1515601"
     inkscape:cx="106.40981"
     inkscape:cy="11.159098"
     inkscape:window-x="431"
     inkscape:window-y="188"
     inkscape:window-maximized="0"
     inkscape:current-layer="svg7723"
     inkscape:snap-bbox="true"
     inkscape:bbox-nodes="true">
    <inkscape:grid
       type="xygrid"
       id="grid5739"
       empspacing="20" />
  </sodipodi:namedview>
  <defs
     id="defs7725">
    <filter
       height="1.8194336"
       y="-0.40971681"
       width="1.4271864"
       x="-0.2135932"
       id="filter9728"
       style="color-interpolation-filters:sRGB">
      <feGaussianBlur
         id="feGaussianBlur9730"
         stdDeviation="9.062806" />
    </filter>
    <linearGradient
       id="highlightgradient">
      <stop
         style="stop-color:#ffffff;stop-opacity:0.74374998;"
         offset="0"
         id="stop3833" />
      <stop
         id="stop3829"
         offset="1"
         style="stop-color:#ffffff;stop-opacity:0;" />
    </linearGradient>
    <linearGradient
       id="shadowgradient">
      <stop
         style="stop-color:#000000;stop-opacity:0.5;"
         offset="0"
         id="stop3833-5" />
      <stop
         id="stop3829-9"
         offset="1"
         style="stop-color:#818080;stop-opacity:0;" />
    </linearGradient>
  </defs>
  <metadata
     id="metadata7728">
    <rdf:RDF>
      <cc:Work
         rdf:about="">
        <dc:format>image/svg+xml</dc:format>
        <dc:type
           rdf:resource="http://purl.org/dc/dcmitype/StillImage" />
        <dc:title></dc:title>
      </cc:Work>
    </rdf:RDF>
  </metadata>
  <g
     transform="translate(-10,-852.36218)"
     id="layer1">
    <g
       transform="matrix(1.1127598,0,0,1.1127598,-1.0174624,736.74525)"
       id="g9219"
       style="display:inline;opacity:1">
      <text
         id="text8693"
         y="157.08125"
         x="120.51489"
         style="color:#000000;font-style:italic;font-variant:normal;font-weight:normal;font-stretch:normal;font-size:23.71269035px;line-height:86.00000143%;font-family:Quantico;-inkscape-font-specification:'Quantico Italic';text-align:center;letter-spacing:17.76723099px;word-spacing:0px;writing-mode:lr-tb;text-anchor:middle;display:inline;overflow:visible;visibility:visible;fill:#ffffff;fill-opacity:0.40517243;fill-rule:nonzero;stroke:none;stroke-width:5;marker:none;enable-background:accumulate"
         xml:space="preserve"
         sodipodi:linespacing="86.000001%"><tspan
           style="font-style:normal;font-variant:normal;font-weight:bold;font-stretch:normal;font-size:23.71269035px;line-height:86.00000143%;font-family:Quantico;-inkscape-font-specification:'Quantico Bold';text-align:center;letter-spacing:17.76723099px;writing-mode:lr-tb;text-anchor:middle;fill:#ffffff;fill-opacity:0.40517243;stroke:none"
           y="157.08125"
           x="129.39851"
           id="tspan8695">TERMINAL</tspan></text>
      <g
         id="g4538"
         transform="matrix(0.47789416,0,0,0.45764749,128.23105,-56.136845)">
        <path
           id="path3752"
           d="m 351.59375,396.03125 -2.25,31.25 29.96875,3.6875 -14.71875,1 -4.9375,68.125 183.03125,0 2.25,-31.1875 -32.3125,-4.53125 17.0625,-0.15625 4.9375,-68.1875 z"
           style="color:#000000;display:inline;overflow:visible;visibility:visible;fill:#ffffff;fill-opacity:1;fill-rule:evenodd;stroke:#ffffff;stroke-width:26.14617348;stroke-miterlimit:4;stroke-dasharray:none;marker:none;enable-background:accumulate"
           inkscape:connector-curvature="0" />
        <path
           id="path4731"
           d="m 446.03125,392.4375 c -30.8265,0 -55.65625,24.7985 -55.65625,55.625 0,30.8265 24.82975,55.65625 55.65625,55.65625 30.8265,0 55.625,-24.82975 55.625,-55.65625 0,-30.8265 -24.7985,-55.625 -55.625,-55.625 z m -94.4375,3.59375 -2.25,31.25 29.96875,3.6875 -14.71875,1 -4.9375,68.125 44.125,0 c -15.10067,-12.2598 -24.75,-30.97664 -24.75,-52.03125 0,-21.07038 9.66104,-39.77197 24.78125,-52.03125 l -52.21875,0 z m 136.625,0 C 503.33896,408.29053 513,426.99212 513,448.0625 c 0,21.05461 -9.64933,39.77145 -24.75,52.03125 l 54.4375,0 2.25,-31.1875 -32.3125,-4.53125 17.0625,-0.15625 4.9375,-68.1875 -46.40625,0 z m -42.1875,26.25 c 14.29511,0 25.78125,11.48614 25.78125,25.78125 0,14.29511 -11.48614,25.8125 -25.78125,25.8125 -14.29511,0 -25.8125,-11.51739 -25.8125,-25.8125 0,-14.29511 11.51739,-25.78125 25.8125,-25.78125 z"
           style="color:#000000;display:inline;overflow:visible;visibility:visible;fill:#43877c;fill-opacity:1;fill-rule:evenodd;stroke:none;stroke-width:1px;marker:none;enable-background:accumulate"
           inkscape:connector-curvature="0" />
      </g>
      <text
         xml:space="preserve"
         style="color:#000000;font-style:italic;font-variant:normal;font-weight:normal;font-stretch:normal;font-size:23.71269035px;line-height:86.00000143%;font-family:Quantico;-inkscape-font-specification:'Quantico Italic';text-align:center;letter-spacing:17.76723099px;word-spacing:0px;writing-mode:lr-tb;text-anchor:middle;display:inline;overflow:visible;visibility:visible;fill:#ffffff;fill-opacity:0.40517243;fill-rule:nonzero;stroke:none;stroke-width:5;marker:none;enable-background:accumulate"
         x="553.05084"
         y="157.08125"
         id="text9211"
         sodipodi:linespacing="86.000001%"><tspan
           id="tspan9213"
           x="561.93445"
           y="157.08125"
           style="font-style:normal;font-variant:normal;font-weight:bold;font-stretch:normal;font-size:23.71269035px;line-height:86.00000143%;font-family:Quantico;-inkscape-font-specification:'Quantico Bold';text-align:center;letter-spacing:17.76723099px;writing-mode:lr-tb;text-anchor:middle;fill:#ffffff;fill-opacity:0.40517243;stroke:none">OVERLOAD</tspan></text>
      <path
         transform="matrix(0.91791023,0,0,0.89708835,28.067882,15.151205)"
         id="path9230"
         d="m 292.17211,120.68175 -1.17142,15.94212 15.60271,1.88117 -7.66306,0.51014 -2.57063,34.75381 95.29207,0 1.17143,-15.91023 -16.82295,-2.3116 8.8833,-0.0797 2.57062,-34.78569 z"
         style="color:#000000;display:inline;overflow:visible;visibility:visible;opacity:0.43500001;fill:#ffffff;fill-opacity:1;fill-rule:evenodd;stroke:#ffffff;stroke-width:13.4747839;stroke-miterlimit:4;stroke-dasharray:none;marker:none;filter:url(#filter9728);enable-background:accumulate"
         inkscape:connector-curvature="0" />
    </g>
  </g>
  <g
     id="layer3"
     inkscape:label="Lines with center break"
     style="display:none"
     transform="translate(114.28601,153.61188)">
    <path
       style="fill:none;stroke:#000000;stroke-width:4;stroke-linecap:butt;stroke-linejoin:miter;stroke-miterlimit:4;stroke-dasharray:none;stroke-opacity:1"
       d="m 64,0 0,26 -32,0 0,22 32,0 0,22 -32,0 0,26"
       id="path3926"
       inkscape:connector-curvature="0"
       sodipodi:nodetypes="cccccccc" />
    <rect
       style="fill:none;stroke:#000000;stroke-width:4;stroke-linecap:round;stroke-linejoin:round;stroke-miterlimit:4;stroke-dasharray:none;stroke-opacity:1"
       id="rect3928"
       width="96"
       height="96"
       x="0"
       y="0"
       rx="16"
       ry="16" />
  </g>
  <g
     id="g5793">
    <path
       style="fill:#ffffff"
       inkscape:connector-curvature="0"
       id="circle7120"
       d="m 1.5057339,181.78627 0,3.33079 A 13.323146,13.323146 0 0 1 14.828879,198.4402 l 3.330788,0 A 16.653931,16.653931 0 0 0 1.5057339,181.78627 Z m 0,5.61475 0,3.23562 a 7.8035566,7.8035566 0 0 1 7.8035562,7.80356 l 3.2356219,0 A 11.039178,11.039178 0 0 0 1.5057339,187.40102 Z m 2.2839674,6.47124 a 2.2839677,2.2839677 0 0 0 -2.2839674,2.28396 2.2839677,2.2839677 0 0 0 2.2839674,2.28398 2.2839677,2.2839677 0 0 0 2.2839681,-2.28398 2.2839677,2.2839677 0 0 0 -2.2839681,-2.28396 z" />
    <rect
       rx="0"
       ry="0"
       y="180"
       x="0"
       height="20"
       width="20"
       id="rect5760"
       style="color:#000000;text-decoration:none;text-decoration-line:none;text-decoration-style:solid;text-decoration-color:#000000;clip-rule:nonzero;display:inline;overflow:visible;visibility:visible;opacity:1;isolation:auto;mix-blend-mode:normal;color-interpolation:sRGB;color-interpolation-filters:linearRGB;solid-color:#000000;solid-opacity:1;fill:none;fill-opacity:1;fill-rule:nonzero;stroke:none;stroke-width:1.47011852px;stroke-linecap:butt;stroke-linejoin:miter;stroke-miterlimit:4;stroke-dasharray:none;stroke-dashoffset:0;stroke-opacity:1;marker:none;color-rendering:auto;image-rendering:auto;shape-rendering:auto;text-rendering:auto;enable-background:accumulate" />
  </g>
  <g
     id="g5778"
     transform="translate(40,0)">
    <g
       style="fill:#ffffff"
       id="g4692"
       transform="matrix(1.1886894,0,0,1.1886894,1.4421855,-1051.3786)">
      <path
         sodipodi:nodetypes="ccccccc"
         inkscape:connector-curvature="0"
         id="path4694"
         d="m 21.791901,1038.1435 -1.818447,0.9375 6.34375,5.3125 -6.34375,5.3125 1.849697,0.8437 7.15625,-6.1875 z"
         style="color:#000000;display:inline;overflow:visible;visibility:visible;fill:#ffffff;fill-opacity:1;fill-rule:nonzero;stroke:none;stroke-width:0;marker:none;enable-background:accumulate" />
      <path
         sodipodi:nodetypes="ssssssssss"
         inkscape:connector-curvature="0"
         style="color:#000000;display:inline;overflow:visible;visibility:visible;fill:#ffffff;fill-opacity:1;fill-rule:nonzero;stroke:none;stroke-width:0;marker:none;enable-background:accumulate"
         d="m 24.076124,1037.3622 c -3.865993,0 -7,3.134 -7,7 0,3.866 3.134007,7 7,7 3.865993,0 7,-3.134 7,-7 0,-3.866 -3.134007,-7 -7,-7 z m 0,1.9747 c 2.773718,0 5.025303,2.2516 5.025303,5.0253 0,2.7738 -2.251585,5.0254 -5.025303,5.0254 -2.773718,0 -5.025303,-2.2516 -5.025303,-5.0254 0,-2.7737 2.251585,-5.0253 5.025303,-5.0253 z"
         id="path4696" />
    </g>
    <rect
       style="color:#000000;text-decoration:none;text-decoration-line:none;text-decoration-style:solid;text-decoration-color:#000000;clip-rule:nonzero;display:inline;overflow:visible;visibility:visible;opacity:1;isolation:auto;mix-blend-mode:normal;color-interpolation:sRGB;color-interpolation-filters:linearRGB;solid-color:#000000;solid-opacity:1;fill:none;fill-opacity:1;fill-rule:nonzero;stroke:none;stroke-width:1.47011852px;stroke-linecap:butt;stroke-linejoin:miter;stroke-miterlimit:4;stroke-dasharray:none;stroke-dashoffset:0;stroke-opacity:1;marker:none;color-rendering:auto;image-rendering:auto;shape-rendering:auto;text-rendering:auto;enable-background:accumulate"
       id="rect5762"
       width="20"
       height="20"
       x="20"
       y="180"
       ry="0"
       rx="0" />
  </g>
  <g
     id="g5774"
     transform="translate(-60,0)">
    <path
       d="m 99.175364,185.04049 c -0.659281,0.29247 -1.36796,0.49004 -2.111556,0.57893 0.759019,-0.455 1.342058,-1.1755 1.616518,-2.03407 -0.710467,0.42141 -1.497261,0.72731 -2.334782,0.89217 -0.670582,-0.71458 -1.626091,-1.16097 -2.683585,-1.16097 -2.030384,0 -3.676647,1.64608 -3.676647,3.67647 0,0.28816 0.03251,0.5688 0.09524,0.83787 -3.055607,-0.15331 -5.764647,-1.61705 -7.57803,-3.84144 -0.316473,0.543 -0.49783,1.17452 -0.49783,1.84833 0,1.27558 0.64908,2.40089 1.635603,3.06019 -0.602668,-0.0191 -1.169573,-0.1845 -1.665251,-0.45985 -4.23e-4,0.0152 -4.23e-4,0.0307 -4.23e-4,0.0462 0,1.7813 1.267327,3.26717 2.949258,3.60516 -0.308495,0.084 -0.633307,0.12894 -0.968611,0.12894 -0.236895,0 -0.467178,-0.0232 -0.691721,-0.066 0.467904,1.4606 1.825651,2.52356 3.434555,2.55312 -1.258287,0.98616 -2.843538,1.57395 -4.56614,1.57395 -0.296759,0 -0.589409,-0.0175 -0.877031,-0.0515 1.627082,1.04323 3.559638,1.65191 5.635902,1.65191 6.762555,0 10.460716,-5.60222 10.460716,-10.4608 0,-0.15941 -0.0036,-0.31791 -0.01088,-0.4757 0.718251,-0.51826 1.341526,-1.16573 1.834425,-1.90307 z"
       id="path5"
       inkscape:connector-curvature="0"
       style="fill:#ffffff" />
    <rect
       rx="0"
       ry="0"
       y="180"
       x="80"
       height="20"
       width="20"
       id="rect5764"
       style="color:#000000;text-decoration:none;text-decoration-line:none;text-decoration-style:solid;text-decoration-color:#000000;clip-rule:nonzero;display:inline;overflow:visible;visibility:visible;opacity:1;isolation:auto;mix-blend-mode:normal;color-interpolation:sRGB;color-interpolation-filters:linearRGB;solid-color:#000000;solid-opacity:1;fill:none;fill-opacity:1;fill-rule:nonzero;stroke:none;stroke-width:1.47011852px;stroke-linecap:butt;stroke-linejoin:miter;stroke-miterlimit:4;stroke-dasharray:none;stroke-dashoffset:0;stroke-opacity:1;marker:none;color-rendering:auto;image-rendering:auto;shape-rendering:auto;text-rendering:auto;enable-background:accumulate" />
  </g>
  <g
     id="g5784">
    <path
       sodipodi:nodetypes="cccccccccccccccc"
       inkscape:connector-curvature="0"
       id="path4167"
       d="m 43.680597,196.14566 3.36955,-4.81486 -5.555077,-1.88896 1.11029,-3.51411 5.583293,1.78276 0.04432,-5.97225 3.726001,0 0.04432,5.97225 5.582706,-1.78276 1.075574,3.55913 -5.519775,1.84083 3.369437,4.81797 -2.916339,2.18285 -3.498957,-4.73211 -3.463507,4.7577 z"
       style="fill:#ffffff" />
    <rect
       style="color:#000000;text-decoration:none;text-decoration-line:none;text-decoration-style:solid;text-decoration-color:#000000;clip-rule:nonzero;display:inline;overflow:visible;visibility:visible;opacity:1;isolation:auto;mix-blend-mode:normal;color-interpolation:sRGB;color-interpolation-filters:linearRGB;solid-color:#000000;solid-opacity:1;fill:none;fill-opacity:1;fill-rule:nonzero;stroke:none;stroke-width:1.47011852px;stroke-linecap:butt;stroke-linejoin:miter;stroke-miterlimit:4;stroke-dasharray:none;stroke-dashoffset:0;stroke-opacity:1;marker:none;color-rendering:auto;image-rendering:auto;shape-rendering:auto;text-rendering:auto;enable-background:accumulate"
       id="rect5766"
       width="20"
       height="20"
       x="40"
       y="180"
       ry="0"
       rx="0" />
    <rect
       style="color:#000000;text-decoration:none;text-decoration-line:none;text-decoration-style:solid;text-decoration-color:#000000;clip-rule:nonzero;display:inline;overflow:visible;visibility:visible;opacity:1;isolation:auto;mix-blend-mode:normal;color-interpolation:sRGB;color-interpolation-filters:linearRGB;solid-color:#000000;solid-opacity:1;fill:none;fill-opacity:1;fill-rule:nonzero;stroke:none;stroke-width:1.47011852px;stroke-linecap:butt;stroke-linejoin:miter;stroke-miterlimit:4;stroke-dasharray:none;stroke-dashoffset:0;stroke-opacity:1;marker:none;color-rendering:auto;image-rendering:auto;shape-rendering:auto;text-rendering:auto;enable-background:accumulate"
       id="rect5768"
       width="20"
       height="20"
       x="40"
       y="180"
       ry="0"
       rx="0" />
  </g>
  <g
     id="g5789"
     transform="translate(20,0)">
    <path
       sodipodi:nodetypes="ssssssssssccccccccssss"
       inkscape:connector-curvature="0"
       id="path4253"
       d="m 65.36722,182.70057 c -1.480203,0 -2.681155,1.20096 -2.681155,2.68117 l 0,9.53303 c 0,1.48021 1.200952,2.68117 2.681155,2.68117 l 9.53303,0 c 1.480213,0 2.681168,-1.20096 2.681168,-2.68117 l 0,-9.53303 c 0,-1.48021 -1.200955,-2.68117 -2.681168,-2.68117 z m 0.179235,0.85346 6.880929,0 0,3.44045 -4.587298,0 0,3.15377 4.587298,0 0,3.15376 -4.587298,0 0,3.44046 -2.293631,0 c -1.116805,0 -2.006947,-0.89013 -2.006947,-2.00693 l 0,-9.17458 c 0,-1.11679 0.890142,-2.00693 2.006947,-2.00693 z"
       style="fill:#ffffff;fill-opacity:1;stroke:none" />
    <rect
       style="color:#000000;text-decoration:none;text-decoration-line:none;text-decoration-style:solid;text-decoration-color:#000000;clip-rule:nonzero;display:inline;overflow:visible;visibility:visible;opacity:1;isolation:auto;mix-blend-mode:normal;color-interpolation:sRGB;color-interpolation-filters:linearRGB;solid-color:#000000;solid-opacity:1;fill:none;fill-opacity:1;fill-rule:nonzero;stroke:none;stroke-width:1.47011852px;stroke-linecap:butt;stroke-linejoin:miter;stroke-miterlimit:4;stroke-dasharray:none;stroke-dashoffset:0;stroke-opacity:1;marker:none;color-rendering:auto;image-rendering:auto;shape-rendering:auto;text-rendering:auto;enable-background:accumulate"
       id="rect5770"
       width="20"
       height="20"
       x="60"
       y="180"
       ry="0"
       rx="0" />
  </g>
  <g
     id="g5797"
     inkscape:export-xdpi="90"
     inkscape:export-ydpi="90">
    <path
       inkscape:connector-curvature="0"
       id="path4639-4"
       d="m 104.44724,182.69001 c -1.22972,0 -2.21981,0.99009 -2.21981,2.21982 l 0,8.87389 c 0,1.22972 0.99009,2.21983 2.21981,2.21983 l 6.59768,0 c -0.007,2.51427 -3.40626,3.56808 -3.40626,3.56808 0,0 5.7459,-0.0189 6.55939,-3.56808 l 1.19754,0 c 1.22972,0 2.21981,-0.99011 2.21981,-2.21983 l 0,-8.87389 c 0,-1.22973 -0.99009,-2.21982 -2.21981,-2.21982 l -10.94835,0 z m 3.18839,1.77901 c 0.0236,-0.004 0.0452,-0.004 0.0645,0 0.0206,0.004 0.0387,0.0124 0.0533,0.0255 0.23576,0.21026 -0.39121,0.41649 -0.34075,1.45067 0.0221,0.45419 -0.11346,0.80708 0.75671,0.80708 0.58071,0 0.34047,-0.51701 1.07198,-0.51701 0.43506,0 0.5954,0.27981 0.65601,0.50761 0.0605,-0.2278 0.22094,-0.50761 0.656,-0.50761 0.7315,0 0.49128,0.51701 1.07197,0.51701 0.87024,0 0.73457,-0.35289 0.75673,-0.80708 0.0504,-1.03418 -0.57618,-1.24041 -0.34042,-1.45067 0.23575,-0.21026 1.2485,1.02178 1.27373,1.50102 0.0264,0.50114 0.0393,1.29118 -0.70602,1.70079 0.83157,0.81979 0.94339,1.90625 0.94339,1.90625 l -1.43792,-0.0252 c 0,0 -0.32794,-1.48839 -2.0684,-1.41273 -1.74045,0.0757 -1.96736,0.37847 -1.96736,2.21983 0,1.84134 0.80716,2.47413 2.04324,2.5223 1.94224,0.0757 1.76556,-1.00885 1.76556,-1.00885 l -0.90813,0.0503 -0.50426,-1.36202 3.10244,0 c 0,1.48821 -0.63064,3.80872 -3.58185,3.65739 -2.95122,-0.15135 -3.60699,-2.47186 -3.63222,-4.03576 -0.0138,-0.85841 0.12604,-1.82627 0.82924,-2.51089 -0.73761,-0.40921 -0.71375,-1.19941 -0.71375,-1.70146 0,-0.62075 0.80197,-1.47219 1.15624,-1.52655 z"
       style="fill:#ffffff;fill-opacity:1;stroke:none" />
    <rect
       style="color:#000000;text-decoration:none;text-decoration-line:none;text-decoration-style:solid;text-decoration-color:#000000;clip-rule:nonzero;display:inline;overflow:visible;visibility:visible;opacity:1;isolation:auto;mix-blend-mode:normal;color-interpolation:sRGB;color-interpolation-filters:linearRGB;solid-color:#000000;solid-opacity:1;fill:none;fill-opacity:1;fill-rule:nonzero;stroke:none;stroke-width:1.47011852px;stroke-linecap:butt;stroke-linejoin:miter;stroke-miterlimit:4;stroke-dasharray:none;stroke-dashoffset:0;stroke-opacity:1;marker:none;color-rendering:auto;image-rendering:auto;shape-rendering:auto;text-rendering:auto;enable-background:accumulate"
       id="rect5772"
       width="20"
       height="20"
       x="100"
       y="180"
       ry="0"
       rx="0" />
  </g>
</svg>
