<?xml version="1.0" encoding="UTF-8" standalone="no"?>
<svg
   xmlns:dc="http://purl.org/dc/elements/1.1/"
   xmlns:cc="http://creativecommons.org/ns#"
   xmlns:rdf="http://www.w3.org/1999/02/22-rdf-syntax-ns#"
   xmlns:svg="http://www.w3.org/2000/svg"
   xmlns="http://www.w3.org/2000/svg"
   style="shape-rendering:crispEdges"
   viewBox="0 0 750 200"
   version="1.1"
   id="svg7723"
   height="200"
   width="750">
  <defs
     id="defs7725">
    <filter
       height="1.8194336"
       y="-0.40971681"
       width="1.4271864"
       x="-0.2135932"
       id="filter9728"
       style="color-interpolation-filters:sRGB">
      <feGaussianBlur
         id="feGaussianBlur9730"
         stdDeviation="9.062806" />
    </filter>
  </defs>
  <metadata
     id="metadata7728">
    <rdf:RDF>
      <cc:Work
         rdf:about="">
        <dc:format>image/svg+xml</dc:format>
        <dc:type
           rdf:resource="http://purl.org/dc/dcmitype/StillImage" />
        <dc:title></dc:title>
      </cc:Work>
    </rdf:RDF>
  </metadata>
  <g
     transform="translate(0,-852.36218)"
     id="layer1">
    <g
       transform="matrix(1.1127598,0,0,1.1127598,-1.0174624,736.74525)"
       id="g9219"
       style="display:inline;opacity:1">
      <text
         id="text8693"
         y="157.08125"
         x="120.51489"
         style="color:#000000;font-style:italic;font-variant:normal;font-weight:normal;font-stretch:normal;font-size:23.71269035px;line-height:86.00000143%;font-family:Quantico;-inkscape-font-specification:'Quantico Italic';text-align:center;letter-spacing:17.76723099px;word-spacing:0px;writing-mode:lr-tb;text-anchor:middle;display:inline;overflow:visible;visibility:visible;fill:#ffffff;fill-opacity:0.40517243;fill-rule:nonzero;stroke:none;stroke-width:5;marker:none;enable-background:accumulate"
         xml:space="preserve"><tspan
           style="font-style:normal;font-variant:normal;font-weight:bold;font-stretch:normal;font-size:23.71269035px;line-height:86.00000143%;font-family:Quantico;-inkscape-font-specification:'Quantico Bold';text-align:center;letter-spacing:17.76723099px;writing-mode:lr-tb;text-anchor:middle;fill:#ffffff;fill-opacity:0.40517243;stroke:none"
           y="157.08125"
           x="129.39851"
           id="tspan8695">TERMINAL</tspan></text>
      <g
         id="g4538"
         transform="matrix(0.47789416,0,0,0.45764749,128.23105,-56.136845)">
        <path
           id="path3752"
           d="m 351.59375,396.03125 -2.25,31.25 29.96875,3.6875 -14.71875,1 -4.9375,68.125 183.03125,0 2.25,-31.1875 -32.3125,-4.53125 17.0625,-0.15625 4.9375,-68.1875 z"
           style="color:#000000;display:inline;overflow:visible;visibility:visible;fill:#ffffff;fill-opacity:1;fill-rule:evenodd;stroke:#ffffff;stroke-width:26.14617348;stroke-miterlimit:4;stroke-dasharray:none;marker:none;enable-background:accumulate" />
        <path
           id="path4731"
           d="m 446.03125,392.4375 c -30.8265,0 -55.65625,24.7985 -55.65625,55.625 0,30.8265 24.82975,55.65625 55.65625,55.65625 30.8265,0 55.625,-24.82975 55.625,-55.65625 0,-30.8265 -24.7985,-55.625 -55.625,-55.625 z m -94.4375,3.59375 -2.25,31.25 29.96875,3.6875 -14.71875,1 -4.9375,68.125 44.125,0 c -15.10067,-12.2598 -24.75,-30.97664 -24.75,-52.03125 0,-21.07038 9.66104,-39.77197 24.78125,-52.03125 l -52.21875,0 z m 136.625,0 C 503.33896,408.29053 513,426.99212 513,448.0625 c 0,21.05461 -9.64933,39.77145 -24.75,52.03125 l 54.4375,0 2.25,-31.1875 -32.3125,-4.53125 17.0625,-0.15625 4.9375,-68.1875 -46.40625,0 z m -42.1875,26.25 c 14.29511,0 25.78125,11.48614 25.78125,25.78125 0,14.29511 -11.48614,25.8125 -25.78125,25.8125 -14.29511,0 -25.8125,-11.51739 -25.8125,-25.8125 0,-14.29511 11.51739,-25.78125 25.8125,-25.78125 z"
           style="color:#000000;display:inline;overflow:visible;visibility:visible;fill:#43877c;fill-opacity:1;fill-rule:evenodd;stroke:none;stroke-width:1px;marker:none;enable-background:accumulate" />
      </g>
      <text
         xml:space="preserve"
         style="color:#000000;font-style:italic;font-variant:normal;font-weight:normal;font-stretch:normal;font-size:23.71269035px;line-height:86.00000143%;font-family:Quantico;-inkscape-font-specification:'Quantico Italic';text-align:center;letter-spacing:17.76723099px;word-spacing:0px;writing-mode:lr-tb;text-anchor:middle;display:inline;overflow:visible;visibility:visible;fill:#ffffff;fill-opacity:0.40517243;fill-rule:nonzero;stroke:none;stroke-width:5;marker:none;enable-background:accumulate"
         x="553.05084"
         y="157.08125"
         id="text9211"><tspan
           id="tspan9213"
           x="561.93445"
           y="157.08125"
           style="font-style:normal;font-variant:normal;font-weight:bold;font-stretch:normal;font-size:23.71269035px;line-height:86.00000143%;font-family:Quantico;-inkscape-font-specification:'Quantico Bold';text-align:center;letter-spacing:17.76723099px;writing-mode:lr-tb;text-anchor:middle;fill:#ffffff;fill-opacity:0.40517243;stroke:none">OVERLOAD</tspan></text>
      <path
         transform="matrix(0.91791023,0,0,0.89708835,28.067882,15.151205)"
         id="path9230"
         d="m 292.17211,120.68175 -1.17142,15.94212 15.60271,1.88117 -7.66306,0.51014 -2.57063,34.75381 95.29207,0 1.17143,-15.91023 -16.82295,-2.3116 8.8833,-0.0797 2.57062,-34.78569 z"
         style="color:#000000;display:inline;overflow:visible;visibility:visible;opacity:0.43500001;fill:#ffffff;fill-opacity:1;fill-rule:evenodd;stroke:#ffffff;stroke-width:13.4747839;stroke-miterlimit:4;stroke-dasharray:none;marker:none;filter:url(#filter9728);enable-background:accumulate" />
    </g>
  </g>
</svg>
